<mxfile host="app.diagrams.net" modified="2024-03-08T09:14:36.101Z" agent="Mozilla/5.0 (Windows NT 10.0; Win64; x64) AppleWebKit/537.36 (KHTML, like Gecko) Chrome/122.0.0.0 Safari/537.36 Edg/122.0.0.0" etag="a9Dr-26OZcpqAIjBlHOe" version="24.0.1" type="device">
  <diagram name="Page-1" id="Ja2yGp56jF9owPH585Dn">
    <mxGraphModel dx="1444" dy="847" grid="1" gridSize="10" guides="1" tooltips="1" connect="1" arrows="1" fold="1" page="1" pageScale="1" pageWidth="4681" pageHeight="3300" math="0" shadow="0">
      <root>
        <mxCell id="0" />
        <mxCell id="1" parent="0" />
        <mxCell id="1I3zxSBQcW0zl9YNrbP6-3" style="edgeStyle=none;curved=1;rounded=0;orthogonalLoop=1;jettySize=auto;html=1;fontSize=12;startSize=8;endSize=8;" parent="1" source="1I3zxSBQcW0zl9YNrbP6-1" target="1I3zxSBQcW0zl9YNrbP6-2" edge="1">
          <mxGeometry relative="1" as="geometry" />
        </mxCell>
        <mxCell id="1I3zxSBQcW0zl9YNrbP6-1" value="" style="ellipse;whiteSpace=wrap;html=1;aspect=fixed;" parent="1" vertex="1">
          <mxGeometry x="145" y="285" width="30" height="30" as="geometry" />
        </mxCell>
        <mxCell id="1I3zxSBQcW0zl9YNrbP6-2" value="mengecek ketersediaan produk" style="rounded=1;whiteSpace=wrap;html=1;" parent="1" vertex="1">
          <mxGeometry x="235" y="270" width="120" height="60" as="geometry" />
        </mxCell>
        <mxCell id="1I3zxSBQcW0zl9YNrbP6-5" value="menerima&lt;div style=&quot;font-size: 12px;&quot;&gt;pesanan&lt;/div&gt;" style="text;html=1;align=center;verticalAlign=middle;resizable=0;points=[];autosize=1;strokeColor=none;fillColor=none;fontSize=12;" parent="1" vertex="1">
          <mxGeometry x="120" y="315" width="80" height="40" as="geometry" />
        </mxCell>
        <mxCell id="1I3zxSBQcW0zl9YNrbP6-9" style="edgeStyle=orthogonalEdgeStyle;rounded=0;orthogonalLoop=1;jettySize=auto;html=1;entryX=0;entryY=0.5;entryDx=0;entryDy=0;fontSize=12;startSize=8;endSize=8;exitX=0.5;exitY=1;exitDx=0;exitDy=0;exitPerimeter=0;" parent="1" source="1I3zxSBQcW0zl9YNrbP6-6" target="1I3zxSBQcW0zl9YNrbP6-8" edge="1">
          <mxGeometry relative="1" as="geometry" />
        </mxCell>
        <mxCell id="1I3zxSBQcW0zl9YNrbP6-10" value="Produk tersedia" style="edgeLabel;html=1;align=center;verticalAlign=middle;resizable=0;points=[];fontSize=12;" parent="1I3zxSBQcW0zl9YNrbP6-9" vertex="1" connectable="0">
          <mxGeometry x="-0.4815" y="-1" relative="1" as="geometry">
            <mxPoint as="offset" />
          </mxGeometry>
        </mxCell>
        <mxCell id="1I3zxSBQcW0zl9YNrbP6-18" style="edgeStyle=orthogonalEdgeStyle;rounded=0;orthogonalLoop=1;jettySize=auto;html=1;entryX=0;entryY=0.5;entryDx=0;entryDy=0;fontSize=12;startSize=8;endSize=8;exitX=0.5;exitY=0;exitDx=0;exitDy=0;exitPerimeter=0;" parent="1" source="1I3zxSBQcW0zl9YNrbP6-6" target="1I3zxSBQcW0zl9YNrbP6-17" edge="1">
          <mxGeometry relative="1" as="geometry" />
        </mxCell>
        <mxCell id="1I3zxSBQcW0zl9YNrbP6-19" value="Produk tidak&lt;div&gt;tersedia&lt;/div&gt;" style="edgeLabel;html=1;align=center;verticalAlign=middle;resizable=0;points=[];fontSize=12;fontFamily=Helvetica;fontColor=default;labelBackgroundColor=default;" parent="1I3zxSBQcW0zl9YNrbP6-18" vertex="1" connectable="0">
          <mxGeometry x="-0.3031" y="1" relative="1" as="geometry">
            <mxPoint as="offset" />
          </mxGeometry>
        </mxCell>
        <mxCell id="1I3zxSBQcW0zl9YNrbP6-6" value="" style="points=[[0.25,0.25,0],[0.5,0,0],[0.75,0.25,0],[1,0.5,0],[0.75,0.75,0],[0.5,1,0],[0.25,0.75,0],[0,0.5,0]];shape=mxgraph.bpmn.gateway2;html=1;verticalLabelPosition=bottom;labelBackgroundColor=#ffffff;verticalAlign=top;align=center;perimeter=rhombusPerimeter;outlineConnect=0;outline=none;symbol=none;gwType=exclusive;" parent="1" vertex="1">
          <mxGeometry x="395" y="275" width="50" height="50" as="geometry" />
        </mxCell>
        <mxCell id="1I3zxSBQcW0zl9YNrbP6-7" style="edgeStyle=none;curved=1;rounded=0;orthogonalLoop=1;jettySize=auto;html=1;entryX=0;entryY=0.5;entryDx=0;entryDy=0;entryPerimeter=0;fontSize=12;startSize=8;endSize=8;" parent="1" source="1I3zxSBQcW0zl9YNrbP6-2" target="1I3zxSBQcW0zl9YNrbP6-6" edge="1">
          <mxGeometry relative="1" as="geometry" />
        </mxCell>
        <mxCell id="1I3zxSBQcW0zl9YNrbP6-12" style="edgeStyle=orthogonalEdgeStyle;rounded=0;orthogonalLoop=1;jettySize=auto;html=1;fontSize=12;startSize=8;endSize=8;entryX=0.5;entryY=1;entryDx=0;entryDy=0;" parent="1" source="1I3zxSBQcW0zl9YNrbP6-8" target="1I3zxSBQcW0zl9YNrbP6-11" edge="1">
          <mxGeometry relative="1" as="geometry" />
        </mxCell>
        <mxCell id="1I3zxSBQcW0zl9YNrbP6-8" value="mengambil barang di gudang" style="rounded=1;whiteSpace=wrap;html=1;" parent="1" vertex="1">
          <mxGeometry x="475" y="430" width="120" height="60" as="geometry" />
        </mxCell>
        <mxCell id="1I3zxSBQcW0zl9YNrbP6-11" value="memproses pemesanan" style="rounded=1;whiteSpace=wrap;html=1;" parent="1" vertex="1">
          <mxGeometry x="1510" y="375" width="120" height="60" as="geometry" />
        </mxCell>
        <mxCell id="1I3zxSBQcW0zl9YNrbP6-21" style="edgeStyle=orthogonalEdgeStyle;rounded=0;orthogonalLoop=1;jettySize=auto;html=1;entryX=0;entryY=0.5;entryDx=0;entryDy=0;strokeColor=default;align=center;verticalAlign=middle;fontFamily=Helvetica;fontSize=12;fontColor=default;labelBackgroundColor=default;startSize=8;endArrow=classic;endSize=8;" parent="1" source="1I3zxSBQcW0zl9YNrbP6-17" target="1I3zxSBQcW0zl9YNrbP6-20" edge="1">
          <mxGeometry relative="1" as="geometry" />
        </mxCell>
        <mxCell id="1I3zxSBQcW0zl9YNrbP6-17" value="memproduksi produk" style="rounded=1;whiteSpace=wrap;html=1;" parent="1" vertex="1">
          <mxGeometry x="475" y="180" width="120" height="60" as="geometry" />
        </mxCell>
        <mxCell id="1I3zxSBQcW0zl9YNrbP6-23" style="edgeStyle=orthogonalEdgeStyle;rounded=0;orthogonalLoop=1;jettySize=auto;html=1;entryX=0;entryY=0.5;entryDx=0;entryDy=0;strokeColor=default;align=center;verticalAlign=middle;fontFamily=Helvetica;fontSize=12;fontColor=default;labelBackgroundColor=default;startSize=8;endArrow=classic;endSize=8;" parent="1" source="1I3zxSBQcW0zl9YNrbP6-20" target="1I3zxSBQcW0zl9YNrbP6-22" edge="1">
          <mxGeometry relative="1" as="geometry" />
        </mxCell>
        <mxCell id="1I3zxSBQcW0zl9YNrbP6-20" value="memesan stok&lt;div&gt;bahan&lt;/div&gt;" style="rounded=1;whiteSpace=wrap;html=1;" parent="1" vertex="1">
          <mxGeometry x="635" y="180" width="125" height="60" as="geometry" />
        </mxCell>
        <mxCell id="1I3zxSBQcW0zl9YNrbP6-22" value="memilih pemasok" style="rounded=1;whiteSpace=wrap;html=1;" parent="1" vertex="1">
          <mxGeometry x="800" y="180" width="125" height="60" as="geometry" />
        </mxCell>
        <mxCell id="1I3zxSBQcW0zl9YNrbP6-27" style="edgeStyle=orthogonalEdgeStyle;rounded=0;orthogonalLoop=1;jettySize=auto;html=1;entryX=0;entryY=0.5;entryDx=0;entryDy=0;strokeColor=default;align=center;verticalAlign=middle;fontFamily=Helvetica;fontSize=12;fontColor=default;labelBackgroundColor=default;startSize=8;endArrow=classic;endSize=8;exitX=0.5;exitY=0;exitDx=0;exitDy=0;exitPerimeter=0;" parent="1" source="1I3zxSBQcW0zl9YNrbP6-24" target="1I3zxSBQcW0zl9YNrbP6-26" edge="1">
          <mxGeometry relative="1" as="geometry" />
        </mxCell>
        <mxCell id="1I3zxSBQcW0zl9YNrbP6-29" style="edgeStyle=orthogonalEdgeStyle;rounded=0;orthogonalLoop=1;jettySize=auto;html=1;entryX=0;entryY=0.5;entryDx=0;entryDy=0;strokeColor=default;align=center;verticalAlign=middle;fontFamily=Helvetica;fontSize=12;fontColor=default;labelBackgroundColor=default;startSize=8;endArrow=classic;endSize=8;exitX=0.5;exitY=1;exitDx=0;exitDy=0;exitPerimeter=0;" parent="1" source="1I3zxSBQcW0zl9YNrbP6-24" target="1I3zxSBQcW0zl9YNrbP6-28" edge="1">
          <mxGeometry relative="1" as="geometry" />
        </mxCell>
        <mxCell id="1I3zxSBQcW0zl9YNrbP6-24" value="" style="points=[[0.25,0.25,0],[0.5,0,0],[0.75,0.25,0],[1,0.5,0],[0.75,0.75,0],[0.5,1,0],[0.25,0.75,0],[0,0.5,0]];shape=mxgraph.bpmn.gateway2;html=1;verticalLabelPosition=bottom;labelBackgroundColor=#ffffff;verticalAlign=top;align=center;perimeter=rhombusPerimeter;outlineConnect=0;outline=none;symbol=none;gwType=exclusive;fontFamily=Helvetica;fontSize=12;fontColor=default;" parent="1" vertex="1">
          <mxGeometry x="990" y="185" width="50" height="50" as="geometry" />
        </mxCell>
        <mxCell id="1I3zxSBQcW0zl9YNrbP6-25" style="edgeStyle=orthogonalEdgeStyle;rounded=0;orthogonalLoop=1;jettySize=auto;html=1;entryX=0;entryY=0.5;entryDx=0;entryDy=0;entryPerimeter=0;strokeColor=default;align=center;verticalAlign=middle;fontFamily=Helvetica;fontSize=12;fontColor=default;labelBackgroundColor=default;startSize=8;endArrow=classic;endSize=8;" parent="1" source="1I3zxSBQcW0zl9YNrbP6-22" target="1I3zxSBQcW0zl9YNrbP6-24" edge="1">
          <mxGeometry relative="1" as="geometry" />
        </mxCell>
        <mxCell id="1I3zxSBQcW0zl9YNrbP6-31" style="edgeStyle=orthogonalEdgeStyle;rounded=0;orthogonalLoop=1;jettySize=auto;html=1;strokeColor=default;align=center;verticalAlign=middle;fontFamily=Helvetica;fontSize=12;fontColor=default;labelBackgroundColor=default;startSize=8;endArrow=classic;endSize=8;" parent="1" source="1I3zxSBQcW0zl9YNrbP6-26" target="1I3zxSBQcW0zl9YNrbP6-30" edge="1">
          <mxGeometry relative="1" as="geometry" />
        </mxCell>
        <mxCell id="1I3zxSBQcW0zl9YNrbP6-26" value="memilih pemasok 1" style="rounded=1;whiteSpace=wrap;html=1;fontFamily=Helvetica;fontSize=12;fontColor=default;labelBackgroundColor=default;" parent="1" vertex="1">
          <mxGeometry x="1080" y="100" width="120" height="60" as="geometry" />
        </mxCell>
        <mxCell id="1I3zxSBQcW0zl9YNrbP6-28" value="memilih pemasok 2" style="rounded=1;whiteSpace=wrap;html=1;fontFamily=Helvetica;fontSize=12;fontColor=default;labelBackgroundColor=default;" parent="1" vertex="1">
          <mxGeometry x="1080" y="265" width="120" height="60" as="geometry" />
        </mxCell>
        <mxCell id="1I3zxSBQcW0zl9YNrbP6-34" style="edgeStyle=orthogonalEdgeStyle;rounded=0;orthogonalLoop=1;jettySize=auto;html=1;strokeColor=default;align=center;verticalAlign=middle;fontFamily=Helvetica;fontSize=12;fontColor=default;labelBackgroundColor=default;startSize=8;endArrow=classic;endSize=8;" parent="1" source="1I3zxSBQcW0zl9YNrbP6-30" target="1I3zxSBQcW0zl9YNrbP6-33" edge="1">
          <mxGeometry relative="1" as="geometry" />
        </mxCell>
        <mxCell id="1I3zxSBQcW0zl9YNrbP6-30" value="" style="points=[[0.25,0.25,0],[0.5,0,0],[0.75,0.25,0],[1,0.5,0],[0.75,0.75,0],[0.5,1,0],[0.25,0.75,0],[0,0.5,0]];shape=mxgraph.bpmn.gateway2;html=1;verticalLabelPosition=bottom;labelBackgroundColor=#ffffff;verticalAlign=top;align=center;perimeter=rhombusPerimeter;outlineConnect=0;outline=none;symbol=none;gwType=exclusive;fontFamily=Helvetica;fontSize=12;fontColor=default;" parent="1" vertex="1">
          <mxGeometry x="1260" y="185" width="50" height="50" as="geometry" />
        </mxCell>
        <mxCell id="1I3zxSBQcW0zl9YNrbP6-32" style="edgeStyle=orthogonalEdgeStyle;rounded=0;orthogonalLoop=1;jettySize=auto;html=1;entryX=0.5;entryY=1;entryDx=0;entryDy=0;entryPerimeter=0;strokeColor=default;align=center;verticalAlign=middle;fontFamily=Helvetica;fontSize=12;fontColor=default;labelBackgroundColor=default;startSize=8;endArrow=classic;endSize=8;" parent="1" source="1I3zxSBQcW0zl9YNrbP6-28" target="1I3zxSBQcW0zl9YNrbP6-30" edge="1">
          <mxGeometry relative="1" as="geometry" />
        </mxCell>
        <mxCell id="1I3zxSBQcW0zl9YNrbP6-36" style="edgeStyle=orthogonalEdgeStyle;rounded=0;orthogonalLoop=1;jettySize=auto;html=1;strokeColor=default;align=center;verticalAlign=middle;fontFamily=Helvetica;fontSize=12;fontColor=default;labelBackgroundColor=default;startSize=8;endArrow=classic;endSize=8;" parent="1" source="1I3zxSBQcW0zl9YNrbP6-33" target="1I3zxSBQcW0zl9YNrbP6-11" edge="1">
          <mxGeometry relative="1" as="geometry">
            <mxPoint x="1570" y="370" as="targetPoint" />
          </mxGeometry>
        </mxCell>
        <mxCell id="1I3zxSBQcW0zl9YNrbP6-33" value="melanjutkan produksi" style="rounded=1;whiteSpace=wrap;html=1;fontFamily=Helvetica;fontSize=12;fontColor=default;labelBackgroundColor=default;" parent="1" vertex="1">
          <mxGeometry x="1370" y="180" width="120" height="60" as="geometry" />
        </mxCell>
        <mxCell id="1I3zxSBQcW0zl9YNrbP6-35" value="" style="group" parent="1" vertex="1" connectable="0">
          <mxGeometry x="1650" y="390" width="150" height="60" as="geometry" />
        </mxCell>
        <mxCell id="1I3zxSBQcW0zl9YNrbP6-14" value="" style="ellipse;whiteSpace=wrap;html=1;aspect=fixed;" parent="1I3zxSBQcW0zl9YNrbP6-35" vertex="1">
          <mxGeometry x="60" width="30" height="30" as="geometry" />
        </mxCell>
        <mxCell id="1I3zxSBQcW0zl9YNrbP6-16" value="Pesanan diterima" style="text;html=1;align=center;verticalAlign=middle;resizable=0;points=[];autosize=1;strokeColor=none;fillColor=none;fontSize=16;" parent="1I3zxSBQcW0zl9YNrbP6-35" vertex="1">
          <mxGeometry y="30" width="150" height="30" as="geometry" />
        </mxCell>
        <mxCell id="1I3zxSBQcW0zl9YNrbP6-15" style="edgeStyle=none;curved=1;rounded=0;orthogonalLoop=1;jettySize=auto;html=1;entryX=0;entryY=0.5;entryDx=0;entryDy=0;fontSize=12;startSize=8;endSize=8;" parent="1" source="1I3zxSBQcW0zl9YNrbP6-11" target="1I3zxSBQcW0zl9YNrbP6-14" edge="1">
          <mxGeometry relative="1" as="geometry" />
        </mxCell>
        <mxCell id="1I3zxSBQcW0zl9YNrbP6-37" value="" style="rounded=0;whiteSpace=wrap;html=1;fontFamily=Helvetica;fontSize=12;fontColor=default;labelBackgroundColor=default;fillColor=none;" parent="1" vertex="1">
          <mxGeometry x="90" y="610" width="1760" height="560" as="geometry" />
        </mxCell>
      </root>
    </mxGraphModel>
  </diagram>
</mxfile>
